<mxfile host="app.diagrams.net" modified="2020-12-04T15:02:28.622Z" agent="5.0 (Windows NT 10.0; Win64; x64) AppleWebKit/537.36 (KHTML, like Gecko) Chrome/86.0.4240.75 Safari/537.36" etag="3_HQVKoKPMIRbttVASJB" version="13.10.9" type="github">
  <diagram id="C5RBs43oDa-KdzZeNtuy" name="Page-1">
    <mxGraphModel dx="942" dy="582" grid="1" gridSize="10" guides="1" tooltips="1" connect="1" arrows="1" fold="1" page="1" pageScale="1" pageWidth="827" pageHeight="1169" math="0" shadow="0">
      <root>
        <mxCell id="WIyWlLk6GJQsqaUBKTNV-0" />
        <mxCell id="WIyWlLk6GJQsqaUBKTNV-1" parent="WIyWlLk6GJQsqaUBKTNV-0" />
        <mxCell id="NM38uyEuR09nrdHG4ut9-12" style="edgeStyle=orthogonalEdgeStyle;rounded=0;orthogonalLoop=1;jettySize=auto;html=1;entryX=0.5;entryY=0;entryDx=0;entryDy=0;" edge="1" parent="WIyWlLk6GJQsqaUBKTNV-1" source="WIyWlLk6GJQsqaUBKTNV-3" target="NM38uyEuR09nrdHG4ut9-0">
          <mxGeometry relative="1" as="geometry">
            <mxPoint x="230" y="170" as="targetPoint" />
          </mxGeometry>
        </mxCell>
        <mxCell id="WIyWlLk6GJQsqaUBKTNV-3" value="new MVVM" style="rounded=1;whiteSpace=wrap;html=1;fontSize=12;glass=0;strokeWidth=1;shadow=0;" parent="WIyWlLk6GJQsqaUBKTNV-1" vertex="1">
          <mxGeometry x="170" y="110" width="120" height="40" as="geometry" />
        </mxCell>
        <mxCell id="NM38uyEuR09nrdHG4ut9-0" value="&lt;span&gt;初始化数据&lt;/span&gt;&lt;br&gt;this.$el = opts.el&lt;br&gt;this.$data = opts.data&lt;br&gt;this.$options = opts" style="rounded=1;whiteSpace=wrap;html=1;fontSize=12;glass=0;strokeWidth=1;shadow=0;" vertex="1" parent="WIyWlLk6GJQsqaUBKTNV-1">
          <mxGeometry x="160" y="210" width="140" height="60" as="geometry" />
        </mxCell>
        <mxCell id="NM38uyEuR09nrdHG4ut9-17" style="edgeStyle=orthogonalEdgeStyle;rounded=0;orthogonalLoop=1;jettySize=auto;html=1;entryX=0.5;entryY=1;entryDx=0;entryDy=0;" edge="1" parent="WIyWlLk6GJQsqaUBKTNV-1" source="NM38uyEuR09nrdHG4ut9-5" target="NM38uyEuR09nrdHG4ut9-25">
          <mxGeometry relative="1" as="geometry">
            <mxPoint x="320" y="355" as="targetPoint" />
          </mxGeometry>
        </mxCell>
        <mxCell id="NM38uyEuR09nrdHG4ut9-5" value="&lt;span&gt;实现数据代理&lt;/span&gt;&lt;br&gt;this.xxx =&amp;gt; this.$data.xxx" style="rounded=1;whiteSpace=wrap;html=1;fontSize=12;glass=0;strokeWidth=1;shadow=0;" vertex="1" parent="WIyWlLk6GJQsqaUBKTNV-1">
          <mxGeometry x="160" y="330" width="140" height="50" as="geometry" />
        </mxCell>
        <mxCell id="NM38uyEuR09nrdHG4ut9-8" style="edgeStyle=orthogonalEdgeStyle;rounded=0;orthogonalLoop=1;jettySize=auto;html=1;entryX=0.5;entryY=0;entryDx=0;entryDy=0;" edge="1" parent="WIyWlLk6GJQsqaUBKTNV-1" source="NM38uyEuR09nrdHG4ut9-0" target="NM38uyEuR09nrdHG4ut9-5">
          <mxGeometry relative="1" as="geometry">
            <mxPoint x="230" y="240" as="sourcePoint" />
            <mxPoint x="230" y="290" as="targetPoint" />
          </mxGeometry>
        </mxCell>
        <mxCell id="NM38uyEuR09nrdHG4ut9-40" style="edgeStyle=orthogonalEdgeStyle;rounded=0;orthogonalLoop=1;jettySize=auto;html=1;entryX=0;entryY=0.5;entryDx=0;entryDy=0;" edge="1" parent="WIyWlLk6GJQsqaUBKTNV-1" source="NM38uyEuR09nrdHG4ut9-25" target="NM38uyEuR09nrdHG4ut9-38">
          <mxGeometry relative="1" as="geometry" />
        </mxCell>
        <mxCell id="NM38uyEuR09nrdHG4ut9-47" style="edgeStyle=orthogonalEdgeStyle;rounded=0;orthogonalLoop=1;jettySize=auto;html=1;exitX=0.5;exitY=0;exitDx=0;exitDy=0;entryX=0.5;entryY=1;entryDx=0;entryDy=0;" edge="1" parent="WIyWlLk6GJQsqaUBKTNV-1" source="NM38uyEuR09nrdHG4ut9-25" target="NM38uyEuR09nrdHG4ut9-26">
          <mxGeometry relative="1" as="geometry" />
        </mxCell>
        <mxCell id="NM38uyEuR09nrdHG4ut9-25" value="&lt;span&gt;添加$data为订阅者&lt;/span&gt;&lt;br&gt;observe($data)&lt;br&gt;define...." style="rounded=1;whiteSpace=wrap;html=1;fontSize=12;glass=0;strokeWidth=1;shadow=0;" vertex="1" parent="WIyWlLk6GJQsqaUBKTNV-1">
          <mxGeometry x="350" y="250" width="140" height="60" as="geometry" />
        </mxCell>
        <mxCell id="NM38uyEuR09nrdHG4ut9-29" style="edgeStyle=orthogonalEdgeStyle;rounded=0;orthogonalLoop=1;jettySize=auto;html=1;exitX=1;exitY=0.25;exitDx=0;exitDy=0;entryX=0;entryY=0.25;entryDx=0;entryDy=0;" edge="1" parent="WIyWlLk6GJQsqaUBKTNV-1" source="NM38uyEuR09nrdHG4ut9-26" target="NM38uyEuR09nrdHG4ut9-28">
          <mxGeometry relative="1" as="geometry" />
        </mxCell>
        <mxCell id="NM38uyEuR09nrdHG4ut9-26" value="消息中间层&lt;br&gt;Dep()" style="rounded=0;whiteSpace=wrap;html=1;" vertex="1" parent="WIyWlLk6GJQsqaUBKTNV-1">
          <mxGeometry x="320" y="110" width="65" height="70" as="geometry" />
        </mxCell>
        <mxCell id="NM38uyEuR09nrdHG4ut9-30" style="edgeStyle=orthogonalEdgeStyle;rounded=0;orthogonalLoop=1;jettySize=auto;html=1;exitX=0;exitY=0.75;exitDx=0;exitDy=0;entryX=1;entryY=0.75;entryDx=0;entryDy=0;" edge="1" parent="WIyWlLk6GJQsqaUBKTNV-1" source="NM38uyEuR09nrdHG4ut9-28" target="NM38uyEuR09nrdHG4ut9-26">
          <mxGeometry relative="1" as="geometry" />
        </mxCell>
        <mxCell id="NM38uyEuR09nrdHG4ut9-42" style="edgeStyle=orthogonalEdgeStyle;rounded=0;orthogonalLoop=1;jettySize=auto;html=1;exitX=1;exitY=0.25;exitDx=0;exitDy=0;entryX=0.75;entryY=0;entryDx=0;entryDy=0;" edge="1" parent="WIyWlLk6GJQsqaUBKTNV-1" source="NM38uyEuR09nrdHG4ut9-28" target="NM38uyEuR09nrdHG4ut9-38">
          <mxGeometry relative="1" as="geometry" />
        </mxCell>
        <mxCell id="NM38uyEuR09nrdHG4ut9-28" value="监视者&lt;br&gt;Watcher($vm,exp, callback)" style="rounded=0;whiteSpace=wrap;html=1;" vertex="1" parent="WIyWlLk6GJQsqaUBKTNV-1">
          <mxGeometry x="480" y="110" width="120" height="70" as="geometry" />
        </mxCell>
        <mxCell id="NM38uyEuR09nrdHG4ut9-41" style="edgeStyle=orthogonalEdgeStyle;rounded=0;orthogonalLoop=1;jettySize=auto;html=1;exitX=0.3;exitY=-0.029;exitDx=0;exitDy=0;entryX=1;entryY=0.75;entryDx=0;entryDy=0;exitPerimeter=0;" edge="1" parent="WIyWlLk6GJQsqaUBKTNV-1" source="NM38uyEuR09nrdHG4ut9-38" target="NM38uyEuR09nrdHG4ut9-28">
          <mxGeometry relative="1" as="geometry" />
        </mxCell>
        <mxCell id="NM38uyEuR09nrdHG4ut9-45" style="edgeStyle=orthogonalEdgeStyle;rounded=0;orthogonalLoop=1;jettySize=auto;html=1;entryX=0.5;entryY=0;entryDx=0;entryDy=0;" edge="1" parent="WIyWlLk6GJQsqaUBKTNV-1" source="NM38uyEuR09nrdHG4ut9-38" target="NM38uyEuR09nrdHG4ut9-44">
          <mxGeometry relative="1" as="geometry" />
        </mxCell>
        <mxCell id="NM38uyEuR09nrdHG4ut9-38" value="初始化命令，括号表达式&lt;br&gt;绑定监视者，绑定事件&lt;br&gt;Compile(el, $vm)" style="rounded=0;whiteSpace=wrap;html=1;" vertex="1" parent="WIyWlLk6GJQsqaUBKTNV-1">
          <mxGeometry x="580" y="205" width="150" height="70" as="geometry" />
        </mxCell>
        <mxCell id="NM38uyEuR09nrdHG4ut9-44" value="view" style="rounded=1;whiteSpace=wrap;html=1;fontSize=12;glass=0;strokeWidth=1;shadow=0;" vertex="1" parent="WIyWlLk6GJQsqaUBKTNV-1">
          <mxGeometry x="600" y="340" width="130" height="40" as="geometry" />
        </mxCell>
        <mxCell id="NM38uyEuR09nrdHG4ut9-46" value="更新视图" style="text;html=1;align=center;verticalAlign=middle;resizable=0;points=[];autosize=1;" vertex="1" parent="WIyWlLk6GJQsqaUBKTNV-1">
          <mxGeometry x="590" y="300" width="60" height="20" as="geometry" />
        </mxCell>
      </root>
    </mxGraphModel>
  </diagram>
</mxfile>
